<?xml version="1.0" encoding="UTF-8"?>
<svg version="1.1" xmlns="http://www.w3.org/2000/svg" width="32" height="32">
<path d="M0 0 C2 3 2 3 2 7 C2.60328125 6.77183594 3.2065625 6.54367188 3.828125 6.30859375 C5.02695312 5.87740234 5.02695312 5.87740234 6.25 5.4375 C7.03890625 5.14746094 7.8278125 4.85742188 8.640625 4.55859375 C11.19103452 3.95477163 12.55322229 4.1526068 15 5 C15 6.32 15 7.64 15 9 C7.49731331 12.3082713 0.25135217 14.41342607 -8 13 C-10.13994575 11.49189168 -10.85335987 10.60611252 -11.46875 8.0625 C-11.50088218 5.94177608 -11.4571137 4.07426124 -11 2 C-7.46920568 -1.42694742 -4.58369724 -1.42603914 0 0 Z M-5 4 C-5.33 5.32 -5.66 6.64 -6 8 C-3.525 8.495 -3.525 8.495 -1 9 C-1.66 8.67 -2.32 8.34 -3 8 C-3.625 5.9375 -3.625 5.9375 -4 4 C-4.33 4 -4.66 4 -5 4 Z " fill="#00EDA6" transform="translate(14,16)"/>
<path d="M0 0 C1.82421875 1.30859375 1.82421875 1.30859375 3 3 C3.38991688 7.36706908 3.46324069 9.30513897 1 13 C-2.05996253 13.86477202 -4.2096797 14.19224007 -7.3125 13.4375 C-9.81035694 11.30969594 -9.72485992 9.16411094 -10 6 C-10.60328125 6.22816406 -11.2065625 6.45632812 -11.828125 6.69140625 C-13.02695312 7.12259766 -13.02695312 7.12259766 -14.25 7.5625 C-15.03890625 7.85253906 -15.8278125 8.14257812 -16.640625 8.44140625 C-19.19103452 9.04522837 -20.55322229 8.8473932 -23 8 C-23 6.68 -23 5.36 -23 4 C-15.49731331 0.6917287 -8.25135217 -1.41342607 0 0 Z M-7 4 C-6.01 4.495 -6.01 4.495 -5 5 C-4.375 7.0625 -4.375 7.0625 -4 9 C-3.34 8.67 -2.68 8.34 -2 8 C-2 7.01 -2 6.02 -2 5 C-3.65 4.67 -5.3 4.34 -7 4 Z " fill="#11E9FF" transform="translate(26,3)"/>
</svg>
