<svg id="katman_1" data-name="katman 1" xmlns="http://www.w3.org/2000/svg" viewBox="0 0 1147.73 1026.91">
  <defs>
    <style>
      .cls-1 {
        fill: none;
      }

      .cls-2 {
        fill: #beff00;
      }

      .cls-3 {
        fill: aqua;
      }
    </style>
  </defs>
  <g>
    <path class="cls-1" d="M1185.44,26.54H734.56A123,123,0,0,0,628.06,88L402.61,478.51a123,123,0,0,0,0,123L628.06,992a123,123,0,0,0,106.5,61.49h450.88A123,123,0,0,0,1291.94,992l225.45-390.48a123,123,0,0,0,0-123L1291.94,88A123,123,0,0,0,1185.44,26.54Z" transform="translate(-386.14 -26.54)"/>
    <path class="cls-2" d="M1054.08,555.89h-187a61.6,61.6,0,0,0-53.35,30.8l-93.51,162a61.57,61.57,0,0,0,0,61.6l93.51,162a61.6,61.6,0,0,0,53.35,30.8h187a61.59,61.59,0,0,0,53.34-30.8l93.52-162a61.62,61.62,0,0,0,0-61.6l-93.52-162A61.59,61.59,0,0,0,1054.08,555.89Z" transform="translate(-386.14 -26.54)"/>
    <path class="cls-3" d="M1053.51,77.25h-187a61.61,61.61,0,0,0-53.35,30.8L719.63,270a61.62,61.62,0,0,0,0,61.6l93.51,162a61.62,61.62,0,0,0,53.35,30.81h187a61.62,61.62,0,0,0,53.35-30.81l93.51-162a61.62,61.62,0,0,0,0-61.6l-93.51-162A61.61,61.61,0,0,0,1053.51,77.25Z" transform="translate(-386.14 -26.54)"/>
  </g>
</svg>
